<svg width="260" height="260" viewBox="0 0 260 260" fill="none" xmlns="http://www.w3.org/2000/svg">
  <!-- White background circle for contrast on all surfaces -->
  <rect width="260" height="260" rx="60" fill="white"/>

  <!--
    Pill-P mark extracted from the full wordmark.
    Original bounds in wordmark: x 520-779, y 17-277 (260x260 square).
    Translate by (-520, -17) to origin.
  -->
  <g transform="translate(-520, -17)">

    <!-- Blue filled top half of pill (the cap) -->
    <path d="M631 132L631 42L711 42C735.853 42 756 62.1472 756 87V87C756 111.853 735.853 132 711 132L631 132Z" fill="#2563EB"/>

    <!-- Full pill outline + lower stem (black stroked paths) -->
    <path d="M763.27 76.8232C763.269 52.6204 743.649 33 719.446 33H638V120.646H719.446C743.649 120.646 763.269 101.026 763.27 76.8232ZM535 217.178C535 241.38 554.62 261.001 578.823 261.001C603.026 261.001 622.646 241.381 622.646 217.178V135.731H535V217.178ZM778.27 76.8232C778.269 109.31 751.933 135.646 719.446 135.646H637.646V217.178C637.646 249.665 611.31 276.001 578.823 276.001C546.336 276.001 520 249.665 520 217.178V120.731H623V18H719.446C751.933 18 778.269 44.3361 778.27 76.8232Z" fill="black"/>
  </g>
</svg>
