<svg width="1864" height="345" viewBox="0 0 1864 345" fill="none" xmlns="http://www.w3.org/2000/svg">
<path d="M119.13 290.388C102.004 290.388 86.1632 287.607 71.6064 282.044C57.0496 276.267 44.4195 268.244 33.716 257.974C23.2266 247.491 14.9849 235.295 8.99094 221.388C2.99698 207.267 0 191.863 0 175.174C0 158.486 2.99698 143.188 8.99094 129.281C14.9849 115.16 23.3336 102.965 34.0371 92.6953C44.7406 82.2116 57.3708 74.1884 71.9275 68.6256C86.4843 62.8488 102.325 59.9605 119.451 59.9605C137.005 59.9605 153.167 63.0628 167.938 69.2674C182.923 75.2581 195.553 84.1372 205.828 95.9047L183.351 118.049C174.788 108.849 165.262 102.109 154.773 97.8302C144.283 93.3372 133.044 91.0907 121.057 91.0907C108.641 91.0907 97.1878 93.2302 86.6983 97.5093C76.2089 101.574 67.1109 107.458 59.4044 115.16C51.6979 122.649 45.7039 131.528 41.4225 141.798C37.1411 151.853 35.0004 162.979 35.0004 175.174C35.0004 187.37 37.1411 198.602 41.4225 208.872C45.7039 218.928 51.6979 227.807 59.4044 235.509C67.1109 242.998 76.2089 248.881 86.6983 253.16C97.1878 257.226 108.641 259.258 121.057 259.258C133.044 259.258 144.283 257.119 154.773 252.84C165.262 248.347 174.788 241.393 183.351 231.979L205.828 254.123C195.553 265.891 182.923 274.877 167.938 281.081C153.167 287.286 136.898 290.388 119.13 290.388Z" fill="black"/>
<path d="M245.603 287.5L347.072 62.8488H381.751L483.541 287.5H446.935L357.347 82.1046H371.155L281.566 287.5H245.603ZM289.915 232.621L299.548 204.7H424.137L434.091 232.621H289.915Z" fill="black"/>
<path d="M984.882 290.388C967.543 290.388 950.952 287.821 935.111 282.686C919.484 277.337 907.068 270.598 897.863 262.467L910.707 234.867C919.27 242.356 930.188 248.56 943.46 253.481C956.732 258.188 970.54 260.542 984.882 260.542C997.513 260.542 1007.68 259.151 1015.39 256.37C1023.31 253.374 1029.09 249.416 1032.73 244.495C1036.58 239.574 1038.51 234.012 1038.51 227.807C1038.51 220.319 1036.05 214.328 1031.12 209.835C1026.2 205.342 1019.67 201.705 1011.53 198.923C1003.61 196.142 994.837 193.681 985.204 191.542C975.57 189.402 965.937 186.942 956.304 184.16C946.671 181.165 937.894 177.421 929.974 172.928C922.053 168.221 915.524 162.123 910.386 154.635C905.462 147.147 903.001 137.412 903.001 125.43C903.001 113.449 906.105 102.537 912.313 92.6953C918.735 82.8535 928.368 74.9372 941.212 68.9465C954.27 62.9558 970.754 59.9605 990.662 59.9605C1003.93 59.9605 1016.99 61.7791 1029.84 65.4163C1042.9 68.8395 1054.13 73.6535 1063.55 79.8581L1052.31 107.779C1042.47 101.574 1032.19 97.0814 1021.49 94.3C1010.78 91.3046 1000.4 89.807 990.341 89.807C978.139 89.807 968.078 91.4116 960.157 94.6209C952.451 97.6163 946.778 101.681 943.139 106.816C939.5 111.737 937.68 117.407 937.68 123.826C937.68 131.314 940.142 137.305 945.065 141.798C949.989 146.291 956.411 149.928 964.332 152.709C972.252 155.277 981.029 157.737 990.662 160.091C1000.51 162.23 1010.25 164.691 1019.88 167.472C1029.52 170.253 1038.29 173.891 1046.21 178.384C1054.13 182.877 1060.56 188.867 1065.48 196.356C1070.4 203.844 1072.87 213.472 1072.87 225.24C1072.87 237.007 1069.65 247.812 1063.23 257.653C1057.02 267.495 1047.39 275.412 1034.33 281.402C1021.27 287.393 1004.79 290.388 984.882 290.388Z" fill="black"/>
<path d="M1244.66 290.388C1214.69 290.388 1191.15 281.83 1174.02 264.714C1157.11 247.598 1148.65 222.779 1148.65 190.258V62.8488H1183.33V188.974C1183.33 213.151 1188.68 230.909 1199.39 242.249C1210.09 253.588 1225.29 259.258 1244.99 259.258C1264.68 259.258 1279.88 253.588 1290.58 242.249C1301.29 230.909 1306.64 213.151 1306.64 188.974V62.8488H1340.67V190.258C1340.67 222.779 1332.11 247.598 1314.99 264.714C1298.07 281.83 1274.63 290.388 1244.66 290.388Z" fill="black"/>
<path d="M1436.38 287.5V62.8488H1471.06V257.333H1591.79V287.5H1436.38Z" fill="black"/>
<path d="M1626.06 287.5L1727.53 62.8488H1762.21L1864 287.5H1827.39L1737.81 82.1046H1751.61L1662.03 287.5H1626.06ZM1670.37 232.621L1680.01 204.7H1804.6L1814.55 232.621H1670.37Z" fill="black"/>
<path d="M665.918 152.442V32.093L772.953 32.093C806.205 32.093 833.16 59.034 833.16 92.2674C833.16 125.501 806.205 152.442 772.953 152.442H665.918Z" fill="#2563EB"/>
<path fill-rule="evenodd" clip-rule="evenodd" d="M868.78 78.659C868.78 122.101 833.544 157.318 790.078 157.318H680.635V273.459L680.63 274.384C680.135 313.469 648.279 345 609.056 345C569.524 345 537.476 312.97 537.476 273.459V137.733H661.039V0H790.078C833.544 1.81745e-06 868.78 35.2169 868.78 78.659ZM844.697 78.659C844.697 48.5103 820.244 24.0698 790.078 24.0698H685.122V133.248H790.078C820.244 133.248 844.697 108.808 844.697 78.659ZM561.559 273.459C561.559 299.677 582.824 320.93 609.056 320.93C635.288 320.93 656.553 299.677 656.553 273.459V161.802H561.559V273.459Z" fill="url(#paint0_linear_82_3)"/>
<defs>
<linearGradient id="paint0_linear_82_3" x1="512.887" y1="226.441" x2="819.466" y2="188.459" gradientUnits="userSpaceOnUse">
<stop offset="0.0976673" stop-color="#6A6C72"/>
<stop offset="0.398126" stop-color="#313337"/>
<stop offset="0.53448"/>
</linearGradient>
</defs>
</svg>
