<svg width="1761" height="310" viewBox="0 0 1761 310" fill="none" xmlns="http://www.w3.org/2000/svg">
<path d="M106.683 260.64C91.3054 260.64 77.081 258.141 64.0099 253.143C51.131 247.952 39.886 240.743 30.2749 231.515C20.8561 222.095 13.4555 211.136 8.07332 198.64C2.69111 186.144 0 172.398 0 157.403C0 142.408 2.69111 128.662 8.07332 116.166C13.4555 103.67 20.9522 92.8077 30.5633 83.5798C40.1744 74.1597 51.4194 66.9504 64.2982 61.9519C77.3693 56.7612 91.5937 54.1659 106.971 54.1659C122.541 54.1659 136.862 56.8574 149.933 62.2403C163.196 67.431 174.441 75.217 183.668 85.5984L164.926 103.766C157.237 95.6915 148.588 89.7318 138.976 85.8868C129.365 81.8496 119.081 79.831 108.125 79.831C96.7837 79.831 86.2115 81.7535 76.4082 85.5984C66.7971 89.4434 58.4354 94.8263 51.3232 101.747C44.211 108.668 38.6366 116.935 34.5999 126.547C30.7555 135.967 28.8333 146.253 28.8333 157.403C28.8333 168.553 30.7555 178.935 34.5999 188.547C38.6366 197.967 44.211 206.138 51.3232 213.059C58.4354 219.98 66.7971 225.363 76.4082 229.208C86.2115 233.053 96.7837 234.975 108.125 234.975C119.081 234.975 129.365 233.053 138.976 229.208C148.588 225.171 157.237 219.019 164.926 210.752L183.668 228.919C174.441 239.301 163.196 247.183 149.933 252.566C136.862 257.949 122.445 260.64 106.683 260.64Z" fill="black"/>
<path d="M234.671 258.333L326.073 56.4729H354.618L446.308 258.333H416.033L334.434 72.6217H345.968L264.37 258.333H234.671ZM273.596 207.868L281.381 184.798H394.984L403.346 207.868H273.596Z" fill="black"/>
<path d="M930.642 260.64C915.264 260.64 900.559 258.333 886.527 253.719C872.495 248.913 861.442 242.761 853.369 235.264L864.037 212.771C871.726 219.499 881.529 225.074 893.447 229.496C905.365 233.918 917.763 236.129 930.642 236.129C942.368 236.129 951.883 234.783 959.187 232.091C966.491 229.4 971.874 225.747 975.334 221.133C978.794 216.327 980.524 210.944 980.524 204.984C980.524 198.064 978.217 192.488 973.604 188.259C969.183 184.029 963.32 180.665 956.015 178.166C948.903 175.474 941.022 173.167 932.372 171.245C923.722 169.322 914.976 167.112 906.134 164.612C897.484 161.921 889.507 158.557 882.202 154.519C875.09 150.482 869.323 145.099 864.902 138.371C860.481 131.45 858.271 122.606 858.271 111.84C858.271 101.459 860.962 91.9426 866.344 83.2915C871.918 74.448 880.376 67.431 891.717 62.2403C903.25 56.8574 917.859 54.1659 935.544 54.1659C947.269 54.1659 958.899 55.7039 970.432 58.7798C981.965 61.8558 991.961 66.2775 1000.42 72.0449L990.904 95.1147C982.254 89.3473 973.123 85.2139 963.512 82.7147C953.901 80.0233 944.578 78.6775 935.544 78.6775C924.203 78.6775 914.88 80.1194 907.575 83.0031C900.271 85.8868 894.889 89.7318 891.429 94.538C888.161 99.3442 886.527 104.727 886.527 110.687C886.527 117.8 888.738 123.471 893.159 127.701C897.772 131.93 903.635 135.295 910.747 137.794C918.052 140.293 926.029 142.6 934.679 144.715C943.329 146.637 951.979 148.848 960.629 151.347C969.471 153.847 977.448 157.115 984.56 161.152C991.865 165.189 997.728 170.572 1002.15 177.301C1006.57 184.029 1008.78 192.681 1008.78 203.254C1008.78 213.443 1005.99 222.96 1000.42 231.803C994.844 240.454 986.194 247.471 974.469 252.854C962.935 258.045 948.327 260.64 930.642 260.64Z" fill="black"/>
<path d="M1177.77 260.64C1151.24 260.64 1130.39 253.047 1115.2 237.859C1100.02 222.671 1092.42 200.467 1092.42 171.245V56.4729H1121.26V170.091C1121.26 192.584 1126.16 209.022 1135.96 219.403C1145.96 229.785 1159.99 234.975 1178.06 234.975C1196.32 234.975 1210.35 229.785 1220.16 219.403C1230.15 209.022 1235.15 192.584 1235.15 170.091V56.4729H1263.12V171.245C1263.12 200.467 1255.52 222.671 1240.34 237.859C1225.35 253.047 1204.49 260.64 1177.77 260.64Z" fill="black"/>
<path d="M1365.48 258.333V56.4729H1394.31V233.245H1503.59V258.333H1365.48Z" fill="black"/>
<path d="M1549.36 258.333L1640.77 56.4729H1669.31L1761 258.333H1730.72L1649.13 72.6217H1660.66L1579.06 258.333H1549.36ZM1588.29 207.868L1596.07 184.798H1709.68L1718.04 207.868H1588.29Z" fill="black"/>
<path d="M632.931 136.977V28.8372L729.042 28.8372C758.899 28.8372 783.104 53.0451 783.104 82.907C783.104 112.769 758.899 136.977 729.042 136.977H632.931Z" fill="#2563EB"/>
<path fill-rule="evenodd" clip-rule="evenodd" d="M809.858 70.6791C809.858 109.714 778.219 141.358 739.189 141.358H640.916V245.717L640.911 246.548C640.466 281.667 611.862 310 576.642 310C541.144 310 512.367 281.219 512.367 245.717V123.76H623.32V0H739.189C778.218 -1.70627e-06 809.858 31.6442 809.858 70.6791ZM791.838 70.6791C791.837 41.5982 768.266 18.0233 739.189 18.0233H641.34V123.335H739.189C768.266 123.335 791.837 99.7601 791.838 70.6791ZM530.388 245.717C530.388 271.265 551.097 291.977 576.642 291.977C602.187 291.977 622.895 271.266 622.895 245.717V141.783H530.388V245.717Z" fill="black"/>
</svg>
