<svg width="1874" height="347" viewBox="0 0 1874 347" fill="none" xmlns="http://www.w3.org/2000/svg">
<path d="M119.769 292.072C102.552 292.072 86.6254 289.274 71.9906 283.679C57.3557 277.869 44.6578 269.799 33.8969 259.47C23.3512 248.925 15.0653 236.659 9.03917 222.672C3.01306 208.469 0 192.975 0 176.19C0 159.405 3.01306 144.018 9.03917 130.031C15.0653 115.828 23.4588 103.562 34.2197 93.2327C44.9807 82.6882 57.6785 74.6184 72.3134 69.0234C86.9482 63.2132 102.874 60.308 120.092 60.308C137.74 60.308 153.989 63.4284 168.839 69.669C183.904 75.6944 196.602 84.625 206.933 96.4606L184.335 118.733C175.726 109.48 166.149 102.701 155.603 98.3974C145.057 93.8783 133.758 91.6187 121.706 91.6187C109.223 91.6187 97.7092 93.7707 87.1635 98.0746C76.6178 102.163 67.471 108.081 59.7231 115.828C51.9752 123.36 45.9491 132.29 41.6448 142.62C37.3404 152.734 35.1882 163.924 35.1882 176.19C35.1882 188.456 37.3404 199.754 41.6448 210.083C45.9491 220.197 51.9752 229.128 59.7231 236.875C67.471 244.406 76.6178 250.324 87.1635 254.628C97.7092 258.717 109.223 260.761 121.706 260.761C133.758 260.761 145.057 258.609 155.603 254.305C166.149 249.786 175.726 242.792 184.335 233.324L206.933 255.596C196.602 267.432 183.904 276.47 168.839 282.711C153.989 288.951 137.632 292.072 119.769 292.072Z" fill="black"/>
<path d="M246.92 289.167L348.934 63.2132H383.799L486.136 289.167H449.333L359.264 82.5806H373.146L283.077 289.167H246.92ZM291.47 233.969L301.155 205.887H426.412L436.42 233.969H291.47Z" fill="black"/>
<path d="M990.166 292.072C972.733 292.072 956.054 289.489 940.128 284.325C924.417 278.945 911.934 272.166 902.68 263.989L915.593 236.229C924.202 243.761 935.178 250.001 948.521 254.951C961.865 259.685 975.746 262.052 990.166 262.052C1002.86 262.052 1013.09 260.653 1020.83 257.856C1028.8 254.843 1034.61 250.862 1038.27 245.913C1042.14 240.963 1044.08 235.368 1044.08 229.128C1044.08 221.596 1041.6 215.57 1036.65 211.051C1031.7 206.532 1025.14 202.874 1016.96 200.076C1009 197.279 1000.17 194.804 990.489 192.652C980.804 190.5 971.119 188.026 961.434 185.228C951.75 182.215 942.926 178.449 934.963 173.93C927 169.196 920.435 163.063 915.27 155.531C910.32 148 907.845 138.208 907.845 126.157C907.845 114.107 910.966 103.132 917.207 93.2327C923.664 83.3338 933.348 75.3716 946.262 69.3462C959.39 63.3208 975.962 60.308 995.977 60.308C1009.32 60.308 1022.45 62.1372 1035.36 65.7955C1048.49 69.2386 1059.79 74.0805 1069.26 80.3211L1057.96 108.404C1048.06 102.163 1037.73 97.6442 1026.97 94.8467C1016.21 91.8339 1005.77 90.3276 995.654 90.3276C983.387 90.3276 973.271 91.9415 965.308 95.1695C957.561 98.1822 951.857 102.271 948.198 107.436C944.54 112.385 942.71 118.088 942.71 124.543C942.71 132.075 945.185 138.101 950.135 142.62C955.085 147.139 961.542 150.797 969.505 153.595C977.468 156.177 986.292 158.652 995.977 161.019C1005.88 163.171 1015.67 165.645 1025.35 168.443C1035.04 171.24 1043.86 174.899 1051.83 179.418C1059.79 183.937 1066.25 189.962 1071.2 197.494C1076.15 205.026 1078.62 214.71 1078.62 226.545C1078.62 238.381 1075.39 249.248 1068.94 259.147C1062.69 269.046 1053.01 277.008 1039.88 283.034C1026.75 289.059 1010.18 292.072 990.166 292.072Z" fill="black"/>
<path d="M1251.34 292.072C1221.21 292.072 1197.54 283.464 1180.32 266.249C1163.32 249.033 1154.82 224.071 1154.82 191.361V63.2132H1189.68V190.07C1189.68 214.387 1195.06 232.248 1205.82 243.653C1216.58 255.058 1231.86 260.761 1251.66 260.761C1271.46 260.761 1286.74 255.058 1297.51 243.653C1308.27 232.248 1313.65 214.387 1313.65 190.07V63.2132H1347.87V191.361C1347.87 224.071 1339.26 249.033 1322.04 266.249C1305.04 283.464 1281.47 292.072 1251.34 292.072Z" fill="black"/>
<path d="M1444.08 289.167V63.2132H1478.95V258.824H1600.33V289.167H1444.08Z" fill="black"/>
<path d="M1634.78 289.167L1736.8 63.2132H1771.66L1874 289.167H1837.2L1747.13 82.5806H1761.01L1670.94 289.167H1634.78ZM1679.33 233.969L1689.02 205.887H1814.28L1824.28 233.969H1679.33Z" fill="black"/>
<path d="M669.491 153.326V32.2791L777.1 32.2791C810.53 32.2791 837.63 59.3763 837.63 92.8023C837.63 126.228 810.53 153.326 777.1 153.326H669.491Z" fill="#2563EB"/>
<path fill-rule="evenodd" clip-rule="evenodd" d="M873.441 79.115C873.441 122.809 838.016 158.23 794.317 158.23H684.287V275.045L684.282 275.974C683.784 315.286 651.757 347 612.323 347C572.579 347 540.36 314.784 540.36 275.045V138.531H664.586V0H794.317C838.016 1.82799e-06 873.441 35.4211 873.441 79.115ZM849.229 79.115C849.229 48.7915 824.644 24.2093 794.317 24.2093H688.798V134.021H794.317C824.644 134.021 849.229 109.439 849.229 79.115ZM564.572 275.045C564.572 301.414 585.951 322.79 612.323 322.791C638.696 322.791 660.075 301.414 660.075 275.045V162.74H564.572V275.045Z" fill="url(#paint0_linear_81_47)"/>
<defs>
<linearGradient id="paint0_linear_81_47" x1="515.639" y1="227.754" x2="823.866" y2="189.583" gradientUnits="userSpaceOnUse">
<stop offset="0.0976673" stop-color="#414348"/>
<stop offset="0.398126" stop-color="#313337"/>
<stop offset="0.53448"/>
</linearGradient>
</defs>
</svg>
