<svg width="1915" height="369" viewBox="0 0 1915 369" fill="none" xmlns="http://www.w3.org/2000/svg">
<path d="M127.704 310.589C109.395 310.589 92.4596 307.614 76.8971 301.665C61.3346 295.486 47.8318 286.905 36.3888 275.92C24.9458 264.707 16.0202 251.664 9.61214 236.789C3.20405 221.686 0 205.21 0 187.36C0 169.511 3.20405 153.149 9.61214 138.275C16.0202 123.172 24.9458 110.128 36.3888 99.1437C48.0607 87.9307 61.6779 79.3493 77.2404 73.3995C92.8029 67.2209 109.739 64.1316 128.047 64.1316C147.272 64.1316 164.894 67.4498 180.914 74.086C196.934 80.4935 210.437 90.2191 221.423 103.263L195.332 128.32C186.407 118.709 176.451 111.615 165.466 107.039C154.481 102.233 142.58 99.8302 129.764 99.8302C116.948 99.8302 105.047 102.004 94.0617 106.352C83.3052 110.7 73.9219 116.764 65.9118 124.545C57.9017 132.325 51.608 141.593 47.0308 152.348C42.6825 162.875 40.5083 174.546 40.5083 187.36C40.5083 200.175 42.6825 211.96 47.0308 222.716C51.608 233.242 57.9017 242.396 65.9118 250.176C73.9219 257.957 83.3052 264.021 94.0617 268.369C105.047 272.717 116.948 274.891 129.764 274.891C142.58 274.891 154.481 272.602 165.466 268.026C176.451 263.22 186.407 255.897 195.332 246.057L221.423 271.115C210.437 284.159 196.934 293.999 180.914 300.635C164.894 307.271 147.157 310.589 127.704 310.589Z" fill="black"/>
<path d="M246.078 307.5L354.214 67.2209H394.379L502.859 307.5H460.635L365.886 89.1893H382.364L287.616 307.5H246.078ZM294.482 250.176L305.467 217.91H437.291L448.619 250.176H294.482Z" fill="black"/>
<path d="M1023.24 310.589C1004.7 310.589 986.961 307.843 970.025 302.351C953.089 296.859 939.587 289.88 929.517 281.413L943.935 249.49C953.547 257.27 965.448 263.792 979.637 269.055C993.827 274.09 1008.36 276.607 1023.24 276.607C1036.51 276.607 1047.15 275.12 1055.16 272.145C1063.4 269.17 1069.35 265.165 1073.01 260.131C1076.9 255.096 1078.85 249.49 1078.85 243.311C1078.85 235.531 1076.22 229.352 1070.95 224.775C1065.69 220.199 1058.82 216.537 1050.36 213.791C1041.89 210.816 1032.5 208.185 1022.21 205.896C1012.14 203.608 1001.95 200.976 991.653 198.001C981.354 194.798 971.97 190.793 963.503 185.987C955.035 180.953 948.169 174.431 942.905 166.422C937.641 158.184 935.01 147.657 935.01 134.842C935.01 121.799 938.442 110.013 945.308 99.487C952.174 88.7316 962.587 80.1502 976.548 73.7428C990.508 67.3353 1008.36 64.1316 1030.1 64.1316C1044.29 64.1316 1058.37 65.9623 1072.33 69.6237C1086.29 73.2851 1098.53 78.5484 1109.06 85.4135L1096.01 117.336C1085.26 110.7 1074.16 105.894 1062.71 102.92C1051.5 99.7158 1040.51 98.1139 1029.76 98.1139C1016.94 98.1139 1006.41 99.7158 998.175 102.92C990.165 106.123 984.329 110.357 980.667 115.62C977.005 120.654 975.175 126.375 975.175 132.783C975.175 140.563 977.806 146.742 983.07 151.319C988.334 155.895 995.085 159.557 1003.32 162.303C1011.79 165.049 1021.18 167.68 1031.47 170.198C1041.77 172.486 1052.07 175.118 1062.37 178.093C1072.67 181.067 1082.05 184.958 1090.52 189.763C1098.99 194.569 1105.85 201.091 1111.12 209.329C1116.38 217.338 1119.01 227.636 1119.01 240.222C1119.01 253.037 1115.47 264.822 1108.37 275.577C1101.51 286.104 1090.98 294.571 1076.79 300.978C1062.83 307.386 1044.98 310.589 1023.24 310.589Z" fill="black"/>
<path d="M1284.47 310.589C1251.97 310.589 1226.57 301.436 1208.26 283.129C1189.95 264.822 1180.8 238.162 1180.8 203.15V67.2209H1220.96V201.777C1220.96 227.178 1226.46 245.714 1237.44 257.385C1248.65 269.055 1264.45 274.891 1284.81 274.891C1305.18 274.891 1320.86 269.055 1331.85 257.385C1343.06 245.714 1348.67 227.178 1348.67 201.777V67.2209H1388.15V203.15C1388.15 238.162 1378.88 264.822 1360.34 283.129C1342.03 301.436 1316.74 310.589 1284.47 310.589Z" fill="black"/>
<path d="M1471.23 307.5V67.2209H1511.4V272.831H1639.1V307.5H1471.23Z" fill="black"/>
<path d="M1658.22 307.5L1766.36 67.2209H1806.52L1915 307.5H1872.78L1778.03 89.1893H1794.5L1699.76 307.5H1658.22ZM1706.62 250.176L1717.61 217.91H1849.43L1860.76 250.176H1706.62Z" fill="black"/>
<path d="M689.385 163.047L689.385 34.3256L803.815 34.3256C839.364 34.3256 868.182 63.1407 868.182 98.686C868.182 134.231 839.364 163.047 803.815 163.047H689.385Z" fill="#2563EB"/>
<path fill-rule="evenodd" clip-rule="evenodd" d="M906.263 84.1309C906.263 130.595 868.593 168.262 822.124 168.262H705.119V292.483L705.114 293.471C704.584 335.275 670.528 369 628.594 369C586.33 369 552.069 334.742 552.069 292.483V147.314H684.169V0H822.124C868.593 1.94389e-06 906.263 37.6668 906.263 84.1309ZM880.517 84.1309C880.516 51.8849 854.373 25.7442 822.124 25.7442H709.916V142.518H822.124C854.373 142.518 880.516 116.377 880.517 84.1309ZM577.816 292.483C577.816 320.524 600.55 343.256 628.594 343.256C656.638 343.256 679.372 320.524 679.372 292.483V173.058H577.816V292.483Z" fill="url(#paint0_linear_86_64)"/>
<defs>
<linearGradient id="paint0_linear_86_64" x1="525.781" y1="242.194" x2="853.546" y2="201.604" gradientUnits="userSpaceOnUse">
<stop offset="0.0976673" stop-color="#414348"/>
<stop offset="0.398126" stop-color="#313337"/>
<stop offset="0.53448"/>
</linearGradient>
</defs>
</svg>
