<svg width="1910" height="368" viewBox="0 0 1910 368" fill="none" xmlns="http://www.w3.org/2000/svg">
<path d="M127.371 309.748C109.11 309.748 92.2182 306.781 76.6964 300.847C61.1745 294.685 47.707 286.127 36.2938 275.173C24.8807 263.99 15.9784 250.982 9.58704 236.148C3.19568 221.085 0 204.654 0 186.853C0 169.052 3.19568 152.734 9.58704 137.9C15.9784 122.838 24.8807 109.829 36.2938 98.875C47.9352 87.6924 61.5169 79.1343 77.0388 73.2006C92.5606 67.0387 109.452 63.9578 127.713 63.9578C146.887 63.9578 164.463 67.267 180.442 73.8853C196.42 80.2753 209.888 89.9746 220.844 102.983L194.822 127.973C185.92 118.388 175.991 111.313 165.034 106.749C154.077 101.956 142.208 99.5597 129.425 99.5597C116.642 99.5597 104.773 101.728 93.8161 106.064C83.0877 110.4 73.7289 116.448 65.7397 124.207C57.7505 131.966 51.4733 141.209 46.908 151.935C42.571 162.433 40.4025 174.073 40.4025 186.853C40.4025 199.633 42.571 211.386 46.908 222.112C51.4733 232.61 57.7505 241.739 65.7397 249.498C73.7289 257.258 83.0877 263.305 93.8161 267.642C104.773 271.978 116.642 274.146 129.425 274.146C142.208 274.146 154.077 271.864 165.034 267.299C175.991 262.507 185.92 255.204 194.822 245.39L220.844 270.38C209.888 283.389 196.42 293.202 180.442 299.82C164.463 306.438 146.773 309.748 127.371 309.748Z" fill="black"/>
<path d="M245.435 306.667L353.29 67.0387H393.35L501.546 306.667H459.432L364.931 88.9476H381.366L286.865 306.667H245.435ZM293.713 249.498L304.669 217.32H436.149L447.448 249.498H293.713Z" fill="black"/>
<path d="M1020.56 309.748C1002.07 309.748 984.384 307.009 967.492 301.532C950.601 296.055 937.134 289.094 927.09 280.65L941.47 248.814C951.058 256.573 962.927 263.077 977.08 268.326C991.232 273.347 1005.73 275.857 1020.56 275.857C1033.8 275.857 1044.42 274.374 1052.41 271.407C1060.62 268.44 1066.56 264.447 1070.21 259.426C1074.09 254.405 1076.03 248.814 1076.03 242.652C1076.03 234.892 1073.41 228.731 1068.16 224.166C1062.91 219.602 1056.06 215.95 1047.61 213.212C1039.17 210.245 1029.81 207.62 1019.54 205.338C1009.49 203.056 999.335 200.432 989.063 197.465C978.792 194.27 969.433 190.276 960.987 185.483C952.541 180.463 945.693 173.958 940.443 165.971C935.193 157.755 932.568 147.257 932.568 134.477C932.568 121.469 935.992 109.715 942.84 99.2174C949.688 88.4911 960.074 79.933 973.998 73.5429C987.922 67.1528 1005.73 63.9578 1027.41 63.9578C1041.56 63.9578 1055.6 65.7836 1069.53 69.435C1083.45 73.0865 1095.66 78.3355 1106.16 85.182L1093.15 117.018C1082.42 110.4 1071.35 105.607 1059.94 102.641C1048.75 99.4456 1037.8 97.8481 1027.07 97.8481C1014.29 97.8481 1003.79 99.4456 995.569 102.641C987.58 105.836 981.759 110.058 978.107 115.307C974.454 120.327 972.628 126.033 972.628 132.423C972.628 140.182 975.253 146.344 980.503 150.909C985.754 155.473 992.487 159.124 1000.7 161.863C1009.15 164.602 1018.51 167.226 1028.78 169.736C1039.05 172.019 1049.32 174.643 1059.6 177.61C1069.87 180.577 1079.23 184.456 1087.67 189.249C1096.12 194.042 1102.97 200.546 1108.22 208.762C1113.47 216.749 1116.09 227.019 1116.09 239.571C1116.09 252.351 1112.55 264.104 1105.48 274.83C1098.63 285.328 1088.13 293.772 1073.98 300.162C1060.05 306.553 1042.25 309.748 1020.56 309.748Z" fill="black"/>
<path d="M1281.12 309.748C1248.7 309.748 1223.37 300.619 1205.11 282.362C1186.85 264.104 1177.71 237.517 1177.71 202.6V67.0387H1217.77V201.23C1217.77 226.562 1223.25 245.048 1234.21 256.687C1245.39 268.326 1261.14 274.146 1281.46 274.146C1301.78 274.146 1317.41 268.326 1328.37 256.687C1339.55 245.048 1345.15 226.562 1345.15 201.23V67.0387H1384.52V202.6C1384.52 237.517 1375.28 264.104 1356.79 282.362C1338.53 300.619 1313.3 309.748 1281.12 309.748Z" fill="black"/>
<path d="M1467.39 306.667V67.0387H1507.45V272.092H1634.82V306.667H1467.39Z" fill="black"/>
<path d="M1653.89 306.667L1761.74 67.0387H1801.8L1910 306.667H1867.89L1773.38 88.9476H1789.82L1695.32 306.667H1653.89ZM1702.17 249.498L1713.12 217.32H1844.6L1855.9 249.498H1702.17Z" fill="black"/>
<path d="M687.585 162.605L687.585 34.2326L801.717 34.2326C837.173 34.2326 865.915 62.9696 865.915 98.4186C865.915 133.868 837.173 162.605 801.717 162.605H687.585Z" fill="#2563EB"/>
<path fill-rule="evenodd" clip-rule="evenodd" d="M903.897 83.9029C903.897 130.241 866.325 167.806 819.977 167.806H703.278V291.69L703.273 292.676C702.744 334.366 668.777 368 626.953 368C584.8 368 550.627 333.835 550.627 291.69V146.915H682.383V0H819.977C866.325 1.93862e-06 903.897 37.5647 903.897 83.9029ZM878.218 83.9029C878.217 51.7443 852.142 25.6744 819.977 25.6744H708.062V142.131H819.977C852.143 142.131 878.217 116.062 878.218 83.9029ZM576.307 291.69C576.307 319.655 598.982 342.325 626.953 342.326C654.924 342.326 677.599 319.655 677.599 291.69V172.589H576.307V291.69Z" fill="black"/>
</svg>
